solid Untitled-59373d61
facet normal 1.0 -7.203978668145999e-15 3.223256171469025e-14
  outer loop
    vertex 4.99898196769914 2.870907113218645 5.526457135307722
    vertex 4.998981967699114 2.5852235488560202 6.250000000000161
    vertex 4.99898196769919 2.870907113218645 3.973542864692597
  endloop
endfacet
facet normal 1.0 1.0852553870029038e-14 3.223256171469023e-14
  outer loop
    vertex 4.998981967699164 2.968348456852593 4.750000000000161
    vertex 4.99898196769914 2.870907113218645 5.526457135307722
    vertex 4.99898196769919 2.870907113218645 3.973542864692597
  endloop
endfacet
facet normal 1.3684664757343198e-14 0.9301224928406941 -0.3672494360946153
  outer loop
    vertex -4.501018032300808 2.87090711321866 3.9735428646922815
    vertex 4.998981967699213 2.5852235488560193 3.2500000000001603
    vertex -4.5010180323007845 2.585223548856035 3.2499999999998446
  endloop
endfacet
facet normal 1.3646787077113302e-14 0.9301224928406939 -0.36724943609461563
  outer loop
    vertex 4.99898196769919 2.870907113218645 3.973542864692597
    vertex 4.998981967699213 2.5852235488560193 3.2500000000001603
    vertex -4.501018032300808 2.87090711321866 3.9735428646922815
  endloop
endfacet
facet normal 2.6264965956306393e-15 -0.992217332765305 -0.12451812944348413
  outer loop
    vertex 4.998981967699155 -2.7510180323008435 4.750000000000161
    vertex -4.501018032300841 -2.751018032300829 4.749999999999846
    vertex -4.5010180323008155 -2.653576688666881 3.973542864692285
  endloop
endfacet
facet normal 2.5989284061726876e-15 -0.992217332765305 -0.12451812944348374
  outer loop
    vertex 4.998981967699155 -2.7510180323008435 4.750000000000161
    vertex -4.5010180323008155 -2.653576688666881 3.973542864692285
    vertex 4.998981967699183 -2.6535766886668952 3.9735428646926
  endloop
endfacet
facet normal -5.660250535526484e-15 -0.992217332765305 0.12451812944348369
  outer loop
    vertex 4.998981967699131 -2.6535766886668952 5.526457135307726
    vertex -4.501018032300867 -2.653576688666881 5.52645713530741
    vertex -4.501018032300841 -2.751018032300829 4.749999999999846
  endloop
endfacet
facet normal 2.0899723340797627e-14 0.8071341449829647 -0.5903680817952633
  outer loop
    vertex 4.998981967699213 2.5852235488560193 3.2500000000001603
    vertex 4.99898196769923 2.2195048604168615 2.750000000000161
    vertex -4.5010180323007845 2.585223548856035 3.2499999999998446
  endloop
endfacet
facet normal 2.092184725400241e-14 0.807134144982965 -0.590368081795263
  outer loop
    vertex -4.5010180323007845 2.585223548856035 3.2499999999998446
    vertex 4.99898196769923 2.2195048604168615 2.750000000000161
    vertex -4.501018032300768 2.219504860416876 2.749999999999845
  endloop
endfacet
facet normal 3.328302545849295e-14 -3.978720008491012e-29 -1.0
  outer loop
    vertex 4.998981967699227 0.10866521227587446 2.750000000000161
    vertex 4.9989819676992235 -2.002174435865112 2.750000000000161
    vertex -4.501018032300775 -2.0021744358650975 2.749999999999845
  endloop
endfacet
facet normal 3.328302545849296e-14 -5.968080012736516e-29 -1.0
  outer loop
    vertex 4.998981967699227 0.10866521227587446 2.750000000000161
    vertex -4.501018032300775 -2.0021744358650975 2.749999999999845
    vertex -4.501018032300771 0.10866521227588898 2.749999999999845
  endloop
endfacet
facet normal 5.6715284312138585e-15 0.992217332765305 -0.12451812944348303
  outer loop
    vertex -4.501018032300832 2.9683484568526075 4.749999999999844
    vertex 4.99898196769919 2.870907113218645 3.973542864692597
    vertex -4.501018032300808 2.87090711321866 3.9735428646922815
  endloop
endfacet
facet normal 5.689071824505266e-15 0.992217332765305 -0.12451812944348284
  outer loop
    vertex 4.998981967699164 2.968348456852593 4.750000000000161
    vertex 4.99898196769919 2.870907113218645 3.973542864692597
    vertex -4.501018032300832 2.9683484568526075 4.749999999999844
  endloop
endfacet
facet normal -5.6138858532562776e-15 -0.992217332765305 0.12451812944348306
  outer loop
    vertex 4.998981967699131 -2.6535766886668952 5.526457135307726
    vertex -4.501018032300841 -2.751018032300829 4.749999999999846
    vertex 4.998981967699155 -2.7510180323008435 4.750000000000161
  endloop
endfacet
facet normal 1.0 -1.88864149947216e-15 3.2899608963058803e-14
  outer loop
    vertex 4.99898196769919 2.870907113218645 3.973542864692597
    vertex 4.998981967699114 2.5852235488560202 6.250000000000161
    vertex 4.998981967699213 2.5852235488560193 3.2500000000001603
  endloop
endfacet
facet normal 1.0 -1.2851255038781194e-15 3.28996089630588e-14
  outer loop
    vertex 4.998981967699114 2.5852235488560202 6.250000000000161
    vertex 4.998981967699097 2.2195048604168615 6.75000000000016
    vertex 4.998981967699213 2.5852235488560193 3.2500000000001603
  endloop
endfacet
facet normal 1.0 9.638441279085479e-16 3.313460616993781e-14
  outer loop
    vertex 4.998981967699213 2.5852235488560193 3.2500000000001603
    vertex 4.998981967699097 2.2195048604168615 6.75000000000016
    vertex 4.99898196769923 2.2195048604168615 2.750000000000161
  endloop
endfacet
facet normal 1.0 -1.6699317289635417e-15 3.313460616993781e-14
  outer loop
    vertex 4.998981967699097 2.2195048604168615 6.75000000000016
    vertex 4.998981967699094 0.10866521227587472 6.75000000000016
    vertex 4.99898196769923 2.2195048604168615 2.750000000000161
  endloop
endfacet
facet normal 1.0 -1.6699317289635482e-15 3.3134606169937815e-14
  outer loop
    vertex 4.99898196769923 2.2195048604168615 2.750000000000161
    vertex 4.998981967699094 0.10866521227587472 6.75000000000016
    vertex 4.998981967699227 0.10866521227587446 2.750000000000161
  endloop
endfacet
facet normal 1.0 -1.045929173961817e-15 3.3134606169937815e-14
  outer loop
    vertex 4.998981967699094 0.10866521227587472 6.75000000000016
    vertex 4.998981967699092 -1.9134362020098694 6.75000000000016
    vertex 4.998981967699227 0.10866521227587446 2.750000000000161
  endloop
endfacet
facet normal 1.0 -1.3359453831708246e-15 3.298799562323598e-14
  outer loop
    vertex 4.998981967699227 0.10866521227587446 2.750000000000161
    vertex 4.998981967699092 -1.9134362020098694 6.75000000000016
    vertex 4.9989819676992235 -2.002174435865112 2.750000000000161
  endloop
endfacet
facet normal 1.0 -0.0 3.295835826477856e-14
  outer loop
    vertex 4.998981967699092 -1.9134362020098694 6.75000000000016
    vertex 4.998981967699092 -2.002174435865112 6.75000000000016
    vertex 4.9989819676992235 -2.002174435865112 2.750000000000161
  endloop
endfacet
facet normal 1.0 1.2048051598857947e-15 3.295835826477856e-14
  outer loop
    vertex 4.998981967699092 -2.002174435865112 6.75000000000016
    vertex 4.998981967699109 -2.36789312430427 6.250000000000162
    vertex 4.9989819676992235 -2.002174435865112 2.750000000000161
  endloop
endfacet
facet normal 1.0 -1.6064068798472984e-15 3.266461175617983e-14
  outer loop
    vertex 4.9989819676992235 -2.002174435865112 2.750000000000161
    vertex 4.998981967699109 -2.36789312430427 6.250000000000162
    vertex 4.998981967699207 -2.3678931243042727 3.2500000000001634
  endloop
endfacet
facet normal 1.0 -3.761206585848564e-15 3.2664611756179836e-14
  outer loop
    vertex 4.998981967699109 -2.36789312430427 6.250000000000162
    vertex 4.998981967699131 -2.6535766886668952 5.526457135307726
    vertex 4.998981967699207 -2.3678931243042727 3.2500000000001634
  endloop
endfacet
facet normal 1.0 -3.586460711469843e-15 3.2686541457150665e-14
  outer loop
    vertex 4.998981967699207 -2.3678931243042727 3.2500000000001634
    vertex 4.998981967699131 -2.6535766886668952 5.526457135307726
    vertex 4.998981967699183 -2.6535766886668952 3.9735428646926
  endloop
endfacet
facet normal 1.0 -1.4470071826706517e-14 3.268654145715064e-14
  outer loop
    vertex 4.998981967699131 -2.6535766886668952 5.526457135307726
    vertex 4.998981967699155 -2.7510180323008435 4.750000000000161
    vertex 4.998981967699183 -2.6535766886668952 3.9735428646926
  endloop
endfacet
facet normal -3.3097501347799005e-14 5.968080012736513e-29 1.0
  outer loop
    vertex 4.998981967699094 0.10866521227587472 6.75000000000016
    vertex -4.501018032300901 2.219504860416876 6.7499999999998455
    vertex -4.501018032300904 0.10866521227588928 6.7499999999998455
  endloop
endfacet
facet normal -3.309750134779902e-14 3.978720008491012e-29 1.0
  outer loop
    vertex 4.998981967699097 2.2195048604168615 6.75000000000016
    vertex -4.501018032300901 2.219504860416876 6.7499999999998455
    vertex 4.998981967699094 0.10866521227587472 6.75000000000016
  endloop
endfacet
facet normal -3.309750134779901e-14 3.517647591666918e-28 1.0
  outer loop
    vertex 4.998981967699092 -2.002174435865112 6.75000000000016
    vertex -4.501018032300908 -1.9134362020098548 6.7499999999998455
    vertex -4.501018032300908 -2.0021744358650975 6.7499999999998455
  endloop
endfacet
facet normal -3.309750134779902e-14 -7.035295183333896e-28 1.0
  outer loop
    vertex 4.998981967699092 -1.9134362020098694 6.75000000000016
    vertex -4.501018032300908 -1.9134362020098548 6.7499999999998455
    vertex 4.998981967699092 -2.002174435865112 6.75000000000016
  endloop
endfacet
facet normal -3.309750134779901e-14 4.335587924657116e-29 1.0
  outer loop
    vertex 4.998981967699092 -1.9134362020098694 6.75000000000016
    vertex -4.501018032300904 0.10866521227588928 6.7499999999998455
    vertex -4.501018032300908 -1.9134362020098548 6.7499999999998455
  endloop
endfacet
facet normal -3.3097501347799005e-14 4.335587924657116e-29 1.0
  outer loop
    vertex 4.998981967699094 0.10866521227587472 6.75000000000016
    vertex -4.501018032300904 0.10866521227588928 6.7499999999998455
    vertex 4.998981967699092 -1.9134362020098694 6.75000000000016
  endloop
endfacet
facet normal 3.328302545849296e-14 -7.957440016982018e-29 -1.0
  outer loop
    vertex 4.99898196769923 2.2195048604168615 2.750000000000161
    vertex -4.501018032300771 0.10866521227588898 2.749999999999845
    vertex -4.501018032300768 2.219504860416876 2.749999999999845
  endloop
endfacet
facet normal 3.328302545849296e-14 -3.978720008491011e-29 -1.0
  outer loop
    vertex 4.99898196769923 2.2195048604168615 2.750000000000161
    vertex 4.998981967699227 0.10866521227587446 2.750000000000161
    vertex -4.501018032300771 0.10866521227588898 2.749999999999845
  endloop
endfacet
facet normal -1.3595381653944161e-14 -0.9301224928406941 0.3672494360946153
  outer loop
    vertex 4.998981967699109 -2.36789312430427 6.250000000000162
    vertex -4.50101803230089 -2.3678931243042554 6.249999999999847
    vertex -4.501018032300867 -2.653576688666881 5.52645713530741
  endloop
endfacet
facet normal -2.0789103774773717e-14 -0.807134144982964 0.5903680817952641
  outer loop
    vertex 4.998981967699092 -2.002174435865112 6.75000000000016
    vertex -4.50101803230089 -2.3678931243042554 6.249999999999847
    vertex 4.998981967699109 -2.36789312430427 6.250000000000162
  endloop
endfacet
facet normal -2.0757147011255683e-14 -0.8071341449829644 0.5903680817952638
  outer loop
    vertex 4.998981967699092 -2.002174435865112 6.75000000000016
    vertex -4.501018032300908 -2.0021744358650975 6.7499999999998455
    vertex -4.50101803230089 -2.3678931243042554 6.249999999999847
  endloop
endfacet
facet normal -1.0 3.617517956676934e-15 -3.314052119961107e-14
  outer loop
    vertex -4.5010180323008155 -2.653576688666881 3.973542864692285
    vertex -4.501018032300841 -2.751018032300829 4.749999999999846
    vertex -4.501018032300867 -2.653576688666881 5.52645713530741
  endloop
endfacet
facet normal -1.0 -3.1057245206793023e-17 -3.314052119961108e-14
  outer loop
    vertex -4.501018032300792 -2.367893124304258 3.249999999999847
    vertex -4.5010180323008155 -2.653576688666881 3.973542864692285
    vertex -4.501018032300867 -2.653576688666881 5.52645713530741
  endloop
endfacet
facet normal -1.0 1.888641499472169e-15 -3.289960896305881e-14
  outer loop
    vertex -4.50101803230089 -2.3678931243042554 6.249999999999847
    vertex -4.501018032300792 -2.367893124304258 3.249999999999847
    vertex -4.501018032300867 -2.653576688666881 5.52645713530741
  endloop
endfacet
facet normal -1.0 -3.2128137596952807e-15 -3.289960896305879e-14
  outer loop
    vertex -4.501018032300908 -2.0021744358650975 6.7499999999998455
    vertex -4.501018032300792 -2.367893124304258 3.249999999999847
    vertex -4.50101803230089 -2.3678931243042554 6.249999999999847
  endloop
endfacet
facet normal -1.0 -1.2401081841716377e-28 -3.3310854075097037e-14
  outer loop
    vertex -4.501018032300908 -1.9134362020098548 6.7499999999998455
    vertex -4.501018032300775 -2.0021744358650975 2.749999999999845
    vertex -4.501018032300908 -2.0021744358650975 6.7499999999998455
  endloop
endfacet
facet normal -1.0 7.228830959311475e-16 -3.3310854075097024e-14
  outer loop
    vertex -4.501018032300775 -2.0021744358650975 2.749999999999845
    vertex -4.501018032300792 -2.367893124304258 3.249999999999847
    vertex -4.501018032300908 -2.0021744358650975 6.7499999999998455
  endloop
endfacet
facet normal -1.0 1.6699317289635464e-15 -3.33479007731688e-14
  outer loop
    vertex -4.501018032300771 0.10866521227588898 2.749999999999845
    vertex -4.501018032300775 -2.0021744358650975 2.749999999999845
    vertex -4.501018032300908 -1.9134362020098548 6.7499999999998455
  endloop
endfacet
facet normal -1.0 1.7432152899363705e-15 -3.331085407509704e-14
  outer loop
    vertex -4.501018032300904 0.10866521227588928 6.7499999999998455
    vertex -4.501018032300771 0.10866521227588898 2.749999999999845
    vertex -4.501018032300908 -1.9134362020098548 6.7499999999998455
  endloop
endfacet
facet normal -1.0 1.669931728963546e-15 -3.3310854075097037e-14
  outer loop
    vertex -4.501018032300901 2.219504860416876 6.7499999999998455
    vertex -4.501018032300771 0.10866521227588898 2.749999999999845
    vertex -4.501018032300904 0.10866521227588928 6.7499999999998455
  endloop
endfacet
facet normal -1.0 1.6699317289635381e-15 -3.3310854075097024e-14
  outer loop
    vertex -4.501018032300768 2.219504860416876 2.749999999999845
    vertex -4.501018032300771 0.10866521227588898 2.749999999999845
    vertex -4.501018032300901 2.219504860416876 6.7499999999998455
  endloop
endfacet
facet normal -1.0 -7.228830959314177e-16 -3.331085407509703e-14
  outer loop
    vertex -4.5010180323007845 2.585223548856035 3.2499999999998446
    vertex -4.501018032300768 2.219504860416876 2.749999999999845
    vertex -4.501018032300901 2.219504860416876 6.7499999999998455
  endloop
endfacet
facet normal -1.0 9.638441279082577e-16 -3.313460616993783e-14
  outer loop
    vertex -4.501018032300884 2.5852235488560353 6.249999999999844
    vertex -4.5010180323007845 2.585223548856035 3.2499999999998446
    vertex -4.501018032300901 2.219504860416876 6.7499999999998455
  endloop
endfacet
facet normal -1.0 1.6076413095737682e-17 -3.313460616993781e-14
  outer loop
    vertex -4.501018032300808 2.87090711321866 3.9735428646922815
    vertex -4.5010180323007845 2.585223548856035 3.2499999999998446
    vertex -4.501018032300884 2.5852235488560353 6.249999999999844
  endloop
endfacet
facet normal -1.0 -3.1057245206554424e-17 -3.3140521199611065e-14
  outer loop
    vertex -4.501018032300808 2.87090711321866 3.9735428646922815
    vertex -4.501018032300884 2.5852235488560353 6.249999999999844
    vertex -4.50101803230086 2.87090711321866 5.526457135307408
  endloop
endfacet
facet normal -1.0 1.0852553870029027e-14 -3.3140521199611065e-14
  outer loop
    vertex -4.501018032300832 2.9683484568526075 4.749999999999844
    vertex -4.501018032300808 2.87090711321866 3.9735428646922815
    vertex -4.50101803230086 2.87090711321866 5.526457135307408
  endloop
endfacet
facet normal -1.0719383505060075e-14 0.9301224928406943 0.36724943609461524
  outer loop
    vertex -4.501018032300884 2.5852235488560353 6.249999999999844
    vertex 4.99898196769914 2.870907113218645 5.526457135307722
    vertex -4.50101803230086 2.87090711321866 5.526457135307408
  endloop
endfacet
facet normal -1.0865483128803876e-14 0.9301224928406949 0.36724943609461347
  outer loop
    vertex 4.998981967699114 2.5852235488560202 6.250000000000161
    vertex 4.99898196769914 2.870907113218645 5.526457135307722
    vertex -4.501018032300884 2.5852235488560353 6.249999999999844
  endloop
endfacet
facet normal -1.849804965178792e-14 0.8071341449829657 0.5903680817952619
  outer loop
    vertex -4.501018032300901 2.219504860416876 6.7499999999998455
    vertex 4.998981967699114 2.5852235488560202 6.250000000000161
    vertex -4.501018032300884 2.5852235488560353 6.249999999999844
  endloop
endfacet
facet normal -1.8262061244270237e-14 0.8071341449829637 0.5903680817952646
  outer loop
    vertex 4.998981967699097 2.2195048604168615 6.75000000000016
    vertex 4.998981967699114 2.5852235488560202 6.250000000000161
    vertex -4.501018032300901 2.219504860416876 6.7499999999998455
  endloop
endfacet
facet normal -2.5926629085686005e-15 0.992217332765305 0.12451812944348312
  outer loop
    vertex 4.99898196769914 2.870907113218645 5.526457135307722
    vertex 4.998981967699164 2.968348456852593 4.750000000000161
    vertex -4.50101803230086 2.87090711321866 5.526457135307408
  endloop
endfacet
facet normal -2.630255894193068e-15 0.992217332765305 0.12451812944348273
  outer loop
    vertex -4.50101803230086 2.87090711321866 5.526457135307408
    vertex 4.998981967699164 2.968348456852593 4.750000000000161
    vertex -4.501018032300832 2.9683484568526075 4.749999999999844
  endloop
endfacet
facet normal -1.3622437139822681e-14 -0.9301224928406939 0.36724943609461563
  outer loop
    vertex 4.998981967699109 -2.36789312430427 6.250000000000162
    vertex -4.501018032300867 -2.653576688666881 5.52645713530741
    vertex 4.998981967699131 -2.6535766886668952 5.526457135307726
  endloop
endfacet
facet normal 1.8392346510920528e-14 -0.8071341449829648 -0.5903680817952632
  outer loop
    vertex 4.998981967699207 -2.3678931243042727 3.2500000000001634
    vertex -4.501018032300792 -2.367893124304258 3.249999999999847
    vertex -4.501018032300775 -2.0021744358650975 2.749999999999845
  endloop
endfacet
facet normal 1.8429219699595155e-14 -0.8071341449829644 -0.5903680817952638
  outer loop
    vertex 4.998981967699207 -2.3678931243042727 3.2500000000001634
    vertex -4.501018032300775 -2.0021744358650975 2.749999999999845
    vertex 4.9989819676992235 -2.002174435865112 2.750000000000161
  endloop
endfacet
facet normal 1.0749144539526372e-14 -0.9301224928406953 -0.3672494360946123
  outer loop
    vertex 4.998981967699183 -2.6535766886668952 3.9735428646926
    vertex -4.5010180323008155 -2.653576688666881 3.973542864692285
    vertex -4.501018032300792 -2.367893124304258 3.249999999999847
  endloop
endfacet
facet normal 1.0768083379641356e-14 -0.9301224928406953 -0.3672494360946124
  outer loop
    vertex 4.998981967699183 -2.6535766886668952 3.9735428646926
    vertex -4.501018032300792 -2.367893124304258 3.249999999999847
    vertex 4.998981967699207 -2.3678931243042727 3.2500000000001634
  endloop
endfacet
endsolid Untitled-59373d61
